<?xml version="1.0" encoding="UTF-8"?>
<svg id="Layer_1" data-name="Layer 1" xmlns="http://www.w3.org/2000/svg" viewBox="0 0 180 180">
  <defs>
    <style>
      .cls-1 {
        fill: #ffd000;
      }

      .cls-2 {
        fill: #fff;
      }
    </style>
  </defs>
  <rect x="0" y="0" width="180" height="180" rx="89.98" ry="89.98"/>
  <g>
    <path class="cls-1" d="M65.1,43.36l-25.12,73.28,37.68,12.91-2.44,7.12-45.26-15.51,27.56-80.41,7.58,2.6Z"/>
    <path class="cls-2" d="M153.52,99.77c.11,15.41-8.28,27.76-23.89,32.35-18.4,5.42-39.94-2.79-48.28-31.1-8.34-28.3,5.42-46.91,23.71-52.3,15.61-4.6,29.35,1.23,37.61,14.24l-6.92,4.44c-6.36-10.41-16.1-15.13-28.57-11.46-16.31,4.8-24.35,20.47-17.8,42.71,6.55,22.25,21.81,31.05,38.11,26.24,12.46-3.67,18.09-12.93,17.79-25.12l8.22-.02Z"/>
  </g>
</svg>